<svg width="1024" height="1024" viewBox="0 0 1024 1024" xmlns="http://www.w3.org/2000/svg">
  <rect width="1024" height="1024" rx="190" fill="#080f11"/>
  <path d="M81.04064045632862 0V1443H423.37155275888813L898.7785524051685 446.8638826307897L719.9929244985337 599.0323550218803H826.9886876207925L826.6136151374698 1443H1149.230363891054V0H812.7328205267554L331.7007356842113 998.0104930268931L510.27807984884873 845.8420206358026H403.28231672659L403.6573892099127 0Z"
        fill="#f0ede8"
        transform="translate(83.000,424.000) scale(0.16,-0.16)"/>
  <path d="M624.904187152539 -22.5413881858886Q441.7823776052793 -22.5413881858886 314.4101204516617 63.4791227950675Q187.03786329804413 149.4996337760236 120.66453291141842 315.20781070323767Q54.29120252479271 480.91598763045175 54.29120252479271 720.2499465926085V722.2499465926085Q54.29120252479271 960.333847062197 120.78950620772262 1126.1670532356952Q187.28780989065254 1292.0002594091932 314.66006704427014 1378.7708237975407Q442.03232419788776 1465.5413881858885 624.904187152539 1465.5413881858885Q808.1926175911848 1465.5413881858885 935.6481851904955 1378.9791965496843Q1063.103752789806 1292.41700491348 1129.4770831764317 1126.3754259878385Q1195.8504135630574 960.333847062197 1195.8504135630574 722.2499465926085V720.2499465926085Q1195.8504135630574 480.91598763045175 1129.4770831764317 314.99943795109425Q1063.103752789806 149.0828882717368 935.7731584867996 63.27075004292411Q808.4425641837931 -22.5413881858886 624.904187152539 -22.5413881858886ZM624.904187152539 279.5791905661267Q693.277698056409 279.5791905661267 740.1306471275585 327.0167623975037Q786.983596198708 374.4543342288807 810.9620094225972 472.1843369485374Q834.9404226464865 569.9143396681941 834.9404226464865 720.2499465926085V722.2499465926085Q834.9404226464865 872.2104708633472 810.837036126293 969.898843792559Q786.7336496060997 1067.5872167217708 739.6932151580922 1115.504013077822Q692.6527807100847 1163.4208094338733 624.904187152539 1163.4208094338733Q558.1971903252719 1163.4208094338733 511.1359244519588 1115.545642868267Q464.0746585786457 1067.6704763026605 439.63792601000466 970.0654468793081Q415.20119344136367 872.4604174559556 415.20119344136367 722.2499465926085V720.2499465926085Q415.20119344136367 569.0393638293016 439.63792601000466 471.621875732787Q464.0746585786457 374.2043876362723 510.6359244519588 326.8917891011995Q557.1971903252719 279.5791905661267 624.904187152539 279.5791905661267Z"
        fill="#f0ede8"
        transform="translate(279.800,424.000) scale(0.16,-0.16)"/>
  <path d="M258.2040366417474 0V258.03841780393816H556.6554002670161Q642.1966459897308 258.03841780393816 687.8630328847669 303.2889137129528Q733.529419779803 348.5394096219675 733.529419779803 441.79089227687393V443.79089227687393Q733.529419779803 503.6252632165561 712.9879120727096 544.8133436894473Q692.4464043656162 586.0014241623385 651.6341339091771 606.9183527720941Q610.8218634527378 627.8352813818495 549.6970987269012 627.8352813818495H258.2040366417474V852.2908210713648H537.5310322892536Q622.1141443217929 852.2908210713648 663.593038205687 895.0619754705692Q705.071932089581 937.8331298697735 705.071932089581 1022.1677602056101V1024.1677602056102Q705.071932089581 1102.4190902791454 665.8222042247542 1143.6903362376038Q626.5724763599275 1184.961582196062 553.4893439736435 1184.961582196062H258.2040366417474V1443H649.5290486010393Q780.6110467713146 1443 870.0265842658591 1398.874988558353Q959.4421217604036 1354.749977116706 1004.8997468155842 1274.708403276241Q1050.3573718707648 1194.666829435776 1050.3573718707648 1087.4171473244983V1085.4171473244983Q1050.3573718707648 996.4168065264041 1015.9410739663166 929.375143675793Q981.5247760618684 862.3334808251817 921.8795359252331 820.4793491310554Q862.2342957885977 778.6252174369292 787.2349214087285 766.3750673851074V759.0418154319824Q871.1507157503196 753.2498092537277 941.0039903901118 712.3125349638478Q1010.8572650299039 671.3752606739679 1052.7316813689984 595.250231427684Q1094.6060977080926 519.1252021813999 1094.6060977080926 408.79084139903165V406.79084139903165Q1094.6060977080926 283.45757927555377 1042.1693498578445 191.83276874401253Q989.7326020075964 100.2079582124713 892.6296274649285 50.10397910623565Q795.5266529222605 0 661.8197679427973 0ZM81.04064045632862 0V1443H434.7424035808822V0Z"
        fill="#2a8fa0"
        transform="translate(559.360,424.000) scale(0.16,-0.16)"/>
  <path d="M550.4484797173956 -22.5413881858886Q389.74247976725644 -22.5413881858886 279.2444990647448 29.00018565457643Q168.74651836223313 80.54175949504146 110.60199795409008 175.64555549580834Q52.45747754594704 270.74935149657523 48.29101433414752 401.8318989962957L47.916043580431534 435.6242866540561H377.03534058112666L378.4103113348427 405.1647033495823Q382.7433598287542 358.78894422401146 405.05521829462896 327.37190626340396Q427.3670767605037 295.9548683027965 464.22045818900125 279.6422723037925Q501.0738396174988 263.32967630478845 548.7814722613274 263.32967630478845Q596.5721864657534 263.32967630478845 630.4048254790914 279.0797424186017Q664.2374644924296 294.829808532415 682.7995772758017 322.3299865396683Q701.3616900591737 349.8301645469217 701.3616900591737 385.16383356274866V386.91388697014025Q701.3616900591737 445.9979857746492 658.9038157912305 485.9782962257142Q616.4459415232873 525.9586066767793 510.86335845340955 569.0437787534131L396.1156295584043 615.0452487214562Q286.82651754964803 657.754737937127 212.41172013734047 716.2757219568426Q137.99692272503287 774.7967059765583 100.18538977564515 853.1503519255034Q62.37385682625741 931.5039978744484 62.37385682625741 1034.4615822351786V1036.2116356425702Q62.41551967686859 1165.1270587010863 123.12263100535868 1261.605438890887Q183.82974233384877 1358.0838190806878 293.2652897955999 1411.8126036332883Q402.70083725735105 1465.5413881858885 549.2404299456705 1465.5413881858885Q707.8209327220204 1465.5413881858885 813.3813644699296 1411.5623671204278Q918.9417962178387 1357.583346054967 972.919784744742 1262.167081210685Q1026.897773271645 1166.7508163664031 1029.7309285803397 1042.9598325302752L1030.7309285803397 1007.3757133459438H701.6116315796446L701.1949979753174 1037.9185562313073Q698.1534165136072 1083.7109387908524 679.6956414261631 1115.253005997744Q661.2378663387188 1146.7950732046354 629.051164287656 1163.295210530477Q596.8644622365931 1179.795347856319 552.0735547433065 1179.795347856319Q508.3660543401433 1179.6703236952114 477.51238807657035 1163.4827137119723Q446.6587218129973 1147.295103728733 430.5964360945094 1119.3573538770638Q414.53415037602144 1091.4196040253944 414.53415037602144 1055.7524948657972V1054.1274656195133Q414.53415037602144 1017.0019786160768 431.304707130085 988.8139210329991Q448.0752638841485 960.6258634499214 484.8455993743616 937.1043097600548Q521.6159348645747 913.5827560701881 581.4069034060564 890.4984842914466L696.9046857084533 844.622038484511Q823.2357657566408 792.5787022066432 902.0048754324746 732.6407768577114Q980.7739851083085 672.7028515087796 1017.147984358623 596.2449975685033Q1053.5219836089377 519.787143628227 1053.5219836089377 418.45492421365964V416.70487080626805Q1053.5219836089377 282.83098852805057 992.9397565666056 184.1651789113717Q932.3575295242737 85.49936929469281 819.6305506395952 31.478990554402106Q706.9035717549168 -22.5413881858886 550.4484797173956 -22.5413881858886Z"
        fill="#2a8fa0"
        transform="translate(740.160,424.000) scale(0.16,-0.16)"/>
  <path d="M-197.0,0 H794.0 V300 H490 V1143 H794.0 V1443 H-197.0 V1143 H107 V300 H-197.0 Z"
        fill="#8a8a8a"
        transform="translate(325.800,879.000) scale(0.1781011781011781,-0.1781011781011781)"/>
  <path d="M106.66748046875 0V1443H1097.6646728515625V1136.0035400390625H489.995849609375V821.665771484375H1041.4979858398438V530.0023193359375H489.995849609375V0Z"
        fill="#8a8a8a"
        transform="translate(511.505,879.000) scale(0.1781011781011781,-0.1781011781011781)"/>
</svg>